<?xml version="1.0" standalone="no"?>
<!DOCTYPE svg PUBLIC "-//W3C//DTD SVG 20010904//EN"
 "http://www.w3.org/TR/2001/REC-SVG-20010904/DTD/svg10.dtd">
<svg version="1.0" xmlns="http://www.w3.org/2000/svg"
 width="626.000000pt" height="626.000000pt" viewBox="0 0 626.000000 626.000000"
 preserveAspectRatio="xMidYMid meet">

<g transform="translate(0.000000,626.000000) scale(0.100000,-0.100000)"
fill="#000000" stroke="none">
<path d="M0 3130 l0 -3130 3130 0 3130 0 0 3130 0 3130 -3130 0 -3130 0 0
-3130z m4180 1511 c0 -6 -4 -13 -10 -16 -5 -3 -10 1 -10 9 0 9 5 16 10 16 6 0
10 -4 10 -9z m-245 -453 c-11 -6 -34 -24 -52 -40 -17 -17 -36 -27 -42 -24 -6
4 -11 3 -11 -3 0 -5 6 -11 13 -14 17 -6 -5 -41 -29 -45 -11 -2 -15 0 -9 5 6 4
12 19 13 33 5 34 43 75 54 58 7 -12 11 -6 6 8 -2 3 11 12 27 19 37 16 58 19
30 3z m-1858 -4 c-3 -3 -12 -4 -19 -1 -8 3 -5 6 6 6 11 1 17 -2 13 -5z m-57
-16 c0 -13 -39 -58 -51 -58 -4 0 -2 11 4 25 7 14 18 25 25 25 7 0 10 5 7 10
-3 6 -1 10 4 10 6 0 11 -5 11 -12z m356 -82 c16 -16 19 -76 4 -76 -5 0 -10 5
-10 10 0 6 -4 10 -10 10 -5 0 -7 -7 -4 -15 5 -13 -11 -15 -115 -15 l-121 0 0
38 c0 21 5 43 12 50 18 18 225 16 244 -2z m1872 -2 c6 -7 12 -28 12 -47 l0
-35 -135 -1 -135 -2 0 39 c0 21 6 44 13 51 16 17 227 13 245 -5z m-2285 -27
c-3 -5 1 -13 8 -18 10 -6 10 -9 2 -9 -7 0 -10 -6 -7 -13 3 -8 -3 -20 -12 -28
-15 -12 -16 -12 -9 10 4 13 3 21 -2 18 -7 -4 -11 44 -4 49 8 5 29 -2 24 -9z
m1874 -61 c0 -7 -9 -18 -19 -25 -11 -7 -18 -7 -18 -1 0 5 5 10 10 10 6 0 9 3
9 8 -2 14 1 22 9 22 5 0 9 -6 9 -14z m-1917 -26 c0 -5 -7 -10 -16 -10 -8 0
-12 5 -9 10 3 6 10 10 16 10 5 0 9 -4 9 -10z m1853 -24 c-10 -13 -37 -37 -60
-53 -23 -15 -41 -32 -40 -37 1 -5 -4 -11 -11 -13 -11 -4 -12 -1 -3 16 7 11 16
21 21 21 6 0 9 6 8 13 -2 6 3 11 10 9 8 -1 16 7 19 18 3 11 9 17 14 14 5 -3
19 4 31 15 29 28 33 26 11 -3z m-1903 10 c0 -3 -20 -25 -45 -50 -41 -40 -74
-96 -81 -135 -3 -13 -22 -31 -35 -31 -4 0 2 17 12 37 11 21 17 43 15 50 -3 7
6 21 19 32 14 10 25 24 25 30 0 6 5 11 10 11 6 0 10 7 10 16 0 8 5 12 10 9 6
-3 10 -1 10 4 0 6 6 10 13 9 6 -2 11 3 10 10 -2 6 4 12 12 12 8 0 15 -2 15 -4z
m530 -56 c0 -5 6 -7 14 -4 7 3 21 -2 29 -11 9 -8 20 -14 25 -13 12 4 72 -54
72 -71 0 -11 -3 -11 -17 0 -16 11 -16 11 -5 -1 7 -8 20 -15 29 -15 18 0 43
-61 46 -116 1 -21 6 -35 10 -32 5 3 11 -4 14 -15 3 -11 15 -23 26 -26 19 -4
652 -9 959 -7 99 1 109 3 135 26 l28 24 -27 1 c-21 0 -25 4 -21 20 4 14 14 20
32 20 24 0 29 6 40 50 17 68 58 120 117 150 47 24 57 25 219 25 144 -1 199 -5
213 -15 1 -2 5 -3 10 -4 33 -8 53 -22 80 -55 24 -30 28 -41 19 -50 -9 -10 -9
-12 2 -9 18 4 42 -42 46 -87 2 -18 15 -80 30 -139 15 -59 24 -110 21 -113 -3
-4 -1 -12 5 -19 6 -8 9 -21 5 -29 -3 -9 -2 -13 4 -10 5 3 10 -4 10 -17 -1 -27
4 -57 12 -78 9 -22 38 -150 42 -180 1 -14 5 -31 9 -37 4 -6 9 -30 12 -54 3
-24 13 -75 23 -114 11 -41 15 -72 9 -74 -5 -2 -4 -7 2 -11 7 -4 13 -18 15 -31
1 -13 5 -31 9 -39 3 -8 13 -51 22 -95 29 -135 8 -228 -69 -309 -16 -17 -25
-24 -20 -16 5 9 -2 4 -16 -10 -14 -14 -21 -20 -16 -13 5 8 5 13 -1 13 -5 0
-15 -11 -21 -24 -16 -36 -98 -59 -160 -45 -82 18 -155 72 -199 147 -18 30 -31
42 -49 42 -13 0 -28 9 -34 20 -9 17 -8 20 10 20 28 0 25 21 -14 105 -29 62
-38 73 -65 78 -35 7 -43 37 -10 37 14 0 19 5 16 14 -3 8 3 37 14 65 10 28 22
75 25 106 l7 55 -30 0 c-17 0 -36 7 -44 16 -10 12 -23 14 -56 9 -35 -5 -43 -3
-43 9 0 10 9 16 21 16 16 0 19 4 14 23 -13 40 -37 87 -46 87 -5 0 -9 6 -9 14
0 8 -4 18 -10 21 -6 3 -7 -1 -4 -10 5 -12 -2 -11 -32 7 -34 20 -53 23 -144 23
-89 0 -111 -3 -145 -22 -59 -32 -92 -68 -123 -132 -23 -48 -30 -56 -40 -44
-17 18 -93 17 -128 -2 -16 -8 -23 -15 -17 -15 7 0 12 -3 11 -7 -9 -38 36 -203
56 -203 6 -1 -5 -9 -24 -20 -30 -16 -54 -18 -161 -17 -90 1 -131 6 -143 16
-10 9 -13 18 -7 25 16 20 51 134 51 169 0 50 -24 67 -87 62 -29 -2 -55 0 -58
6 -4 5 -17 9 -30 9 -12 0 -26 7 -29 16 -10 25 -7 34 9 28 28 -11 15 17 -31 66
-56 60 -112 80 -226 80 -77 0 -90 -4 -167 -52 -12 -7 -36 -41 -53 -75 -28 -58
-55 -82 -83 -74 -5 1 -25 -1 -44 -4 -26 -5 -31 -9 -20 -16 8 -5 10 -9 4 -9
-23 0 0 -125 36 -191 7 -13 6 -25 -1 -37 -9 -14 -10 -13 -6 8 3 14 3 19 0 12
-3 -6 -10 -10 -15 -6 -5 3 -5 -5 0 -19 8 -20 3 -38 -24 -91 -18 -37 -34 -70
-35 -74 -1 -4 -7 -6 -15 -4 -7 1 -16 -2 -20 -8 -3 -6 0 -7 9 -4 21 8 20 -5 -4
-61 -13 -30 -24 -44 -31 -39 -8 4 -9 3 -5 -4 4 -6 1 -22 -6 -36 -16 -29 -95
-96 -113 -96 -7 0 -15 -5 -17 -12 -9 -26 -128 -35 -183 -14 -82 32 -165 118
-180 188 -5 23 -12 28 -36 28 -22 0 -29 5 -29 20 0 15 7 20 25 20 23 0 25 4
25 40 0 38 6 71 45 235 29 122 30 135 5 135 -32 0 -22 34 12 38 28 3 33 17 53
137 4 22 20 96 35 165 16 69 40 176 53 238 l24 112 -24 0 c-35 0 -27 34 9 38
26 3 38 23 38 67 0 60 83 159 150 180 53 16 370 21 370 5z m1250 -121 c0 -6
-7 -9 -15 -5 -8 3 -15 1 -15 -4 0 -6 8 -10 18 -10 15 -1 15 -2 1 -13 -9 -7
-14 -18 -12 -24 3 -7 0 -13 -6 -13 -6 0 -7 -7 -4 -17 4 -11 3 -14 -6 -9 -11 7
-7 76 6 99 7 11 33 8 33 -4z m-1926 -103 c-3 -9 -10 -13 -15 -10 -6 3 -7 -5
-3 -20 3 -15 2 -39 -4 -54 -6 -15 -13 -40 -16 -55 -10 -42 -29 -22 -21 22 17
95 27 131 35 126 5 -3 12 0 15 6 10 15 17 5 9 -15z m-51 -246 c-3 -14 -10 -30
-14 -36 -5 -6 -7 -13 -4 -16 3 -2 -1 -25 -9 -51 -7 -25 -11 -48 -8 -51 2 -3 0
-12 -6 -19 -7 -8 -9 -16 -6 -20 3 -3 -1 -17 -8 -32 -12 -22 -16 -24 -26 -12
-12 14 -5 46 21 104 5 11 6 26 3 32 -4 6 -4 16 0 23 5 8 10 6 15 -8 6 -16 8
-14 8 9 1 16 -3 26 -9 22 -5 -3 -10 -1 -10 4 0 6 4 11 9 11 5 0 7 10 3 22 -4
17 -2 20 11 15 20 -7 22 4 6 20 -9 9 -7 12 9 10 18 -1 20 -6 15 -27z m-75
-320 c1 -38 -27 -192 -40 -217 -6 -12 -15 -20 -19 -17 -5 3 -6 -9 -2 -27 4
-21 2 -30 -4 -26 -6 4 -8 -4 -5 -20 4 -19 1 -24 -9 -21 -20 7 -23 65 -5 93 23
35 48 141 48 207 1 47 4 56 18 55 12 -1 18 -10 18 -27z m1107 -41 c65 -39 95
-83 95 -137 0 -33 -4 -42 -17 -43 -17 -1 -17 -2 0 -6 18 -5 17 -24 -4 -68 -15
-32 -75 -67 -122 -72 -37 -4 -49 -1 -87 29 -55 42 -79 82 -87 147 -3 28 -9 49
-12 46 -4 -2 -13 1 -21 6 -13 8 -12 12 4 24 11 8 27 15 37 15 9 0 24 11 32 24
16 24 90 66 117 66 7 0 37 -14 65 -31z m1054 10 c17 -6 31 -15 31 -21 0 -5 6
-8 13 -5 6 2 29 -13 50 -35 34 -36 37 -44 37 -97 0 -44 -6 -66 -22 -91 -36
-52 -91 -91 -137 -97 -85 -12 -159 74 -155 180 2 41 -1 47 -18 47 -29 0 -19
34 12 38 14 2 37 16 52 32 25 24 82 59 99 60 3 0 20 -5 38 -11z m-843 -235
c-3 -9 -6 -19 -6 -24 0 -4 -9 -6 -20 -3 -22 6 -22 6 -14 27 3 9 15 16 26 16
14 0 18 -5 14 -16z m-1402 -115 c-3 -6 -9 -28 -11 -48 -3 -20 -9 -40 -13 -46
-4 -5 -6 -50 -4 -100 5 -101 6 -108 23 -148 6 -16 8 -33 5 -39 -4 -7 -2 -8 5
-4 6 4 14 0 18 -11 3 -10 13 -26 21 -36 12 -13 13 -20 4 -29 -9 -9 -12 -8 -12
6 0 9 -4 14 -10 11 -5 -3 -10 0 -10 8 0 8 -9 22 -20 32 -15 14 -17 21 -9 32
10 11 8 12 -6 7 -14 -6 -16 -3 -10 16 5 17 4 21 -6 15 -9 -6 -11 -2 -7 13 4
12 2 20 -3 16 -5 -3 -10 3 -11 13 0 10 -3 32 -4 48 -7 58 -3 140 6 143 5 2 7
9 4 17 -3 7 0 31 6 54 8 31 16 41 31 41 12 0 17 -4 13 -11z m2350 -36 c-20
-15 -34 -17 -34 -5 0 13 7 18 30 18 20 0 20 -1 4 -13z m-1191 -26 l109 0 -36
-19 c-51 -26 -120 -26 -178 0 -27 11 -48 26 -48 32 0 7 6 7 22 -1 12 -7 68
-12 131 -12z m1062 -11 c58 2 75 0 62 -7 -9 -6 -21 -8 -25 -5 -4 2 -18 -1 -31
-8 -25 -14 -93 -6 -131 14 -29 15 -25 19 13 11 18 -5 68 -7 112 -5z m-778 -52
c-3 -3 -12 -4 -19 -1 -8 3 -5 6 6 6 11 1 17 -2 13 -5z m499 -9 c9 -8 11 -15 6
-15 -5 0 -15 7 -22 15 -7 8 -9 15 -6 15 4 0 14 -7 22 -15z m-1031 -13 c-3 -3
-11 0 -18 7 -9 10 -8 11 6 5 10 -3 15 -9 12 -12z m1570 -42 c4 -8 11 -23 16
-32 6 -13 5 -18 -3 -19 -7 0 -4 -4 7 -9 19 -8 19 -9 -2 -9 -14 -1 -23 5 -23
14 0 8 -4 15 -10 15 -5 0 -10 10 -10 23 0 13 -5 28 -11 34 -7 7 -9 20 -5 29 6
16 9 16 21 -6 8 -14 17 -32 20 -40z m-1513 19 c28 -17 29 -19 8 -14 -14 4 -32
13 -40 21 -21 20 -5 17 32 -7z m1041 7 c4 -10 0 -12 -14 -9 -27 7 -34 23 -11
23 11 0 22 -6 25 -14z m44 -22 c-3 -3 -12 -4 -19 -1 -8 3 -5 6 6 6 11 1 17 -2
13 -5z m50 -10 c-3 -3 -12 -4 -19 -1 -8 3 -5 6 6 6 11 1 17 -2 13 -5z m423
-115 c0 -5 4 -7 10 -4 6 3 7 -1 4 -9 -3 -9 -2 -16 4 -16 6 0 13 -14 17 -30 4
-18 11 -27 17 -24 7 4 8 2 4 -4 -4 -7 -1 -12 9 -12 11 0 15 -5 12 -14 -6 -15
27 -56 44 -56 6 0 7 -5 4 -10 -4 -6 -12 -4 -21 5 -9 8 -22 15 -30 15 -8 0 -13
4 -10 9 3 5 0 14 -8 20 -8 7 -17 23 -20 37 -4 14 -10 23 -14 20 -4 -2 -17 15
-29 40 -17 35 -19 44 -7 44 8 0 14 -5 14 -11z m-2438 -174 c6 -13 15 -22 19
-19 5 3 9 0 9 -6 0 -5 25 -21 55 -35 68 -30 73 -41 6 -14 -72 30 -149 99 -111
99 6 0 15 -11 22 -25z m2685 -81 c-3 -3 -12 -4 -19 -1 -8 3 -5 6 6 6 11 1 17
-2 13 -5z m-2480 -20 c-3 -3 -12 -4 -19 -1 -8 3 -5 6 6 6 11 1 17 -2 13 -5z"/>
<path d="M4230 4019 c0 -5 5 -7 10 -4 6 3 10 8 10 11 0 2 -4 4 -10 4 -5 0 -10
-5 -10 -11z"/>
<path d="M2476 3857 c3 -10 9 -15 12 -12 3 3 0 11 -7 18 -10 9 -11 8 -5 -6z"/>
<path d="M4405 3831 c8 -17 19 -33 25 -36 5 -3 1 10 -11 29 -25 43 -36 48 -14
7z"/>
<path d="M4012 3758 c-9 -4 -12 -7 -7 -7 6 -1 -1 -7 -15 -14 -31 -16 -52 -89
-40 -141 5 -22 4 -38 -4 -46 -8 -8 -7 -10 5 -5 9 3 22 -2 30 -11 12 -16 12
-17 -1 -9 -8 4 -12 4 -7 0 17 -20 161 -30 207 -15 21 7 44 25 57 45 23 35 21
45 -9 45 -27 0 -22 29 7 36 16 4 25 13 25 26 0 27 -72 98 -101 99 -80 4 -132
3 -147 -3z m77 -125 c10 -17 10 -17 11 0 0 10 4 16 10 12 5 -3 7 -12 4 -19 -8
-20 -68 -15 -72 7 -5 23 34 23 47 0z"/>
<path d="M4461 3714 c0 -11 3 -14 6 -6 3 7 2 16 -1 19 -3 4 -6 -2 -5 -13z"/>
<path d="M2082 3707 c-32 -19 -50 -48 -47 -80 3 -22 -1 -27 -18 -28 -17 -1
-18 -2 -4 -6 9 -2 17 -13 17 -24 0 -16 -8 -19 -52 -20 -29 -1 -56 -1 -61 0 -4
1 -16 -14 -27 -31 -15 -24 -20 -51 -20 -101 0 -38 -5 -78 -11 -89 -8 -15 -8
-19 0 -14 6 4 11 1 11 -7 0 -26 37 -48 96 -57 33 -6 62 -10 67 -10 4 0 7 -27
7 -59 0 -52 3 -62 26 -80 23 -18 41 -21 126 -21 153 0 188 22 188 119 l0 51
45 0 c56 0 103 23 115 56 15 38 12 176 -4 197 -7 9 -24 17 -37 17 -13 1 -35 7
-49 15 -14 8 -35 14 -47 15 -21 0 -23 5 -23 49 0 47 -2 50 -27 53 -32 3 -46
38 -16 38 14 1 13 4 -7 15 -32 19 -215 20 -248 2z m159 -159 c1 -40 1 -76 1
-79 -1 -6 -3 -6 96 -15 67 -6 72 -8 72 -30 0 -16 -6 -24 -17 -25 -17 -1 -17
-2 0 -6 10 -3 17 -12 15 -21 -3 -14 -17 -18 -76 -20 -40 -2 -72 -7 -72 -13 0
-6 -4 -8 -9 -4 -5 3 -12 1 -16 -5 -3 -5 -3 -10 2 -10 4 0 7 -31 5 -68 -3 -67
-4 -68 -33 -70 l-29 -2 0 64 c0 58 -3 67 -26 85 -18 14 -41 21 -73 21 -81 0
-121 11 -121 31 0 14 7 19 25 19 20 0 25 5 25 25 0 24 3 25 56 25 35 0 67 6
85 17 27 16 29 21 29 85 l0 68 30 0 30 0 1 -72z"/>
<path d="M3916 3647 c3 -10 9 -15 12 -12 3 3 0 11 -7 18 -10 9 -11 8 -5 -6z"/>
<path d="M3777 3522 c-10 -2 -15 -7 -12 -12 3 -5 -4 -12 -15 -15 -25 -8 -40
-43 -40 -91 0 -19 -4 -33 -9 -29 -5 3 -13 1 -16 -5 -4 -6 -1 -9 5 -8 6 2 21
-16 33 -38 29 -55 60 -68 158 -62 l79 5 -20 -22 c-11 -12 -20 -25 -20 -30 0
-5 7 1 16 13 8 12 19 20 24 17 4 -3 7 3 5 12 -1 10 9 31 24 46 22 24 26 37 26
88 0 57 -2 63 -37 95 -21 19 -48 35 -60 35 -61 3 -126 4 -141 1z m99 -123 c3
-6 1 -16 -6 -22 -10 -9 -11 -9 -6 1 4 6 2 12 -3 12 -6 0 -11 5 -11 10 0 13 17
13 26 -1z"/>
<path d="M4263 3516 c-18 -8 -38 -28 -47 -48 -17 -37 -24 -97 -13 -115 4 -6 4
-19 0 -29 -4 -11 -2 -15 4 -11 5 3 19 -2 30 -13 53 -49 195 -46 243 5 14 14
25 44 30 77 4 29 8 45 9 36 0 -9 5 -20 11 -23 13 -8 1 27 -14 40 -6 6 -16 19
-22 30 -6 10 -23 28 -38 39 -34 26 -146 33 -193 12z m102 -133 c-7 -27 -7 -28
-17 -6 -13 27 -2 61 14 45 6 -6 8 -22 3 -39z"/>
<path d="M1856 3508 c3 -5 10 -6 15 -3 13 9 11 12 -6 12 -8 0 -12 -4 -9 -9z"/>
<path d="M4505 3490 c3 -5 8 -10 11 -10 2 0 4 5 4 10 0 6 -5 10 -11 10 -5 0
-7 -4 -4 -10z"/>
<path d="M2931 3421 c-14 -25 -14 -106 -1 -132 12 -22 52 -25 69 -5 7 9 11 41
9 83 l-3 68 -32 3 c-23 2 -34 -2 -42 -17z"/>
<path d="M3350 3421 c-5 -11 -10 -41 -10 -66 0 -25 5 -55 10 -66 12 -21 50
-25 68 -7 16 16 16 130 0 146 -18 18 -56 14 -68 -7z"/>
<path d="M4170 3367 c0 -14 5 -29 10 -32 7 -4 8 3 4 22 -9 38 -14 42 -14 10z"/>
<path d="M4007 3275 c-8 -8 -18 -11 -22 -7 -5 4 -5 2 -1 -5 3 -6 -3 -18 -15
-27 -16 -10 -22 -25 -21 -48 0 -18 -5 -39 -11 -47 -9 -12 -9 -13 1 -7 7 4 12
1 12 -9 0 -25 32 -75 48 -75 7 0 11 -4 8 -8 -2 -4 31 -9 74 -11 91 -3 130 12
160 62 36 58 20 132 -36 176 -22 17 -41 21 -105 21 -54 0 -82 -4 -92 -15z
m107 -104 c8 -13 -4 -42 -15 -35 -12 7 -12 44 0 44 6 0 12 -4 15 -9z"/>
<path d="M4566 3222 c-3 -5 1 -9 9 -9 8 0 15 4 15 9 0 4 -4 8 -9 8 -6 0 -12
-4 -15 -8z"/>
<path d="M4571 3184 c0 -11 3 -14 6 -6 3 7 2 16 -1 19 -3 4 -6 -2 -5 -13z"/>
<path d="M3220 3096 c-8 -11 -30 -16 -65 -16 -71 0 -85 -7 -85 -39 0 -43 17
-51 101 -51 77 0 78 0 104 34 35 46 31 80 -11 84 -19 2 -36 -3 -44 -12z"/>
<path d="M3270 2880 c0 -5 5 -10 11 -10 5 0 7 5 4 10 -3 6 -8 10 -11 10 -2 0
-4 -4 -4 -10z"/>
<path d="M4650 2815 c0 -5 5 -17 10 -25 5 -8 10 -10 10 -5 0 6 -5 17 -10 25
-5 8 -10 11 -10 5z"/>
<path d="M3290 2771 c0 -5 7 -12 16 -15 14 -5 15 -4 4 9 -14 17 -20 19 -20 6z"/>
<path d="M2250 2761 c0 -5 7 -12 16 -15 14 -5 15 -4 4 9 -14 17 -20 19 -20 6z"/>
<path d="M2236 2647 c3 -10 9 -15 12 -12 3 3 0 11 -7 18 -10 9 -11 8 -5 -6z"/>
<path d="M4675 2409 c-4 -6 -5 -12 -2 -15 2 -3 7 2 10 11 7 17 1 20 -8 4z"/>
<path d="M2086 2348 c-14 -27 -14 -29 -1 -13 9 11 20 19 25 18 5 -2 7 4 4 12
-8 19 -7 20 -28 -17z"/>
<path d="M1471 2494 c0 -11 3 -14 6 -6 3 7 2 16 -1 19 -3 4 -6 -2 -5 -13z"/>
</g>
</svg>
